#!OML:ASF F:\VICON\USERDATA\INSTALL\rory3\rory3.ASF
:FULLY-SPECIFIED
:DEGREES
1718
root -10.775 19.2489 1.76517 -5.62512 -63.821 11.5431
lowerback 6.84112 3.88228 -1.46546
upperback -2.1089 4.93718 -1.84927
thorax -5.99123 2.44823 -1.69498
lowerneck -13.7635 -0.463196 -5.39386
upperneck -2.21878 -0.10584 8.33883
head 1.7422 0.162064 3.74653
rclavicle -2.10091e-014 -1.05356e-014
rhumerus 105.245 -27.7346 -70.5039
rradius 15.189
rwrist 0.745259
rhand -30.3263 -9.57286
rfingers 7.12502
rthumb -3.63259 -39.5217
lclavicle -2.10091e-014 -1.05356e-014
lhumerus 105.22 28.6228 56.805
lradius 22.9884
lwrist 26.9298
lhand -10.421 26.5481
lfingers 7.12502
lthumb 15.5782 55.9407
rfemur 1.21915 19.1838 12.6603
rtibia 26.3235
rfoot -15.4728 -20.7334
rtoes -9.10964
lfemur -24.3258 -13.5625 -15.7791
ltibia 30.2676
lfoot 8.15562 4.09662
ltoes -10.7066
1719
root -10.766 19.0844 1.85537 -5.13484 -64.2568 10.6575
lowerback 6.85696 4.06035 -0.890508
upperback -1.93934 5.2433 -1.66505
thorax -5.78226 2.58512 -1.84883
lowerneck -12.7831 -0.573577 -5.22619
upperneck -2.10187 -0.302655 8.19468
head 1.61643 0.0459637 3.63874
rclavicle 6.67047e-014 -1.03368e-014
rhumerus 104.165 -27.6995 -69.5447
rradius 15.3471
rwrist -0.0950282
rhand -30.8753 -9.86968
rfingers 7.12502
rthumb -4.16274 -39.8088
lclavicle 6.67047e-014 -1.03368e-014
lhumerus 105.026 29.0043 56.5819
lradius 23.1099
lwrist 27.2145
lhand -10.1425 25.7124
lfingers 7.12502
lthumb 15.8464 55.0839
rfemur 1.88207 19.2508 12.929
rtibia 26.4296
rfoot -17.6098 -19.9066
rtoes -10.9095
lfemur -23.7864 -12.656 -15.9887
ltibia 30.9307
lfoot 3.65081 1.87166
ltoes -7.30222
1720
root -10.7568 18.9369 1.94744 -4.77618 -64.6485 9.80702
lowerback 6.94 4.14811 -0.366237
upperback -1.75378 5.42287 -1.45002
thorax -5.60237 2.66261 -1.93218
lowerneck -11.7246 -0.61302 -4.9901
upperneck -2.02172 -0.410847 7.96769
head 1.45579 -0.0298418 3.49461
rclavicle 5.77718e-014 1.27222e-014
rhumerus 103.237 -27.409 -68.9254
rradius 15.5479
rwrist -0.958572
rhand -30.9193 -9.64065
rfingers 7.12502
rthumb -4.2052 -39.5789
lclavicle 5.77718e-014 1.27222e-014
lhumerus 104.437 29.6135 55.9677
lradius 23.4342
lwrist 27.4741
lhand -10.2995 25.8042
lfingers 7.12502
lthumb 15.6952 55.1876
rfemur 2.70009 19.3697 13.223
rtibia 26.4888
rfoot -19.6015 -19.1572
rtoes -12.3694
lfemur -23.0019 -11.0844 -16.3979
ltibia 31.8132
lfoot 1.05222 0.30206
ltoes -16.6237
1721
root -10.7514 18.8039 2.03424 -4.49257 -65.0355 8.94398
lowerback 7.14347 4.17606 0.0738793
upperback -1.58382 5.51316 -1.22363
thorax -5.51756 2.69814 -1.95852
lowerneck -11.5478 -0.497132 -5.52144
upperneck -0.919615 -0.256242 8.59503
head 1.79307 0.0760089 3.8425
rclavicle 5.62809e-014 1.59028e-015
rhumerus 102.286 -26.9945 -68.3436
rradius 15.7355
rwrist -1.60191
rhand -31.0531 -9.6622
rfingers 7.12502
rthumb -4.33444 -39.5978
lclavicle 5.62809e-014 1.59028e-015
lhumerus 103.907 29.9651 55.5854
lradius 23.7167
lwrist 27.0773
lhand -10.4688 25.6269
lfingers 7.12502
lthumb 15.5321 55.0231
rfemur 3.67182 19.4858 13.6085
rtibia 26.4077
rfoot -21.073 -18.8044
rtoes -13.2478
lfemur -22.3038 -9.58826 -16.7107
ltibia 32.7804
lfoot -1.78275 -1.31167
ltoes -21.8844
1722
root -10.7502 18.6724 2.11186 -4.60563 -65.3294 8.41262
lowerback 7.51022 4.17722 0.303946
upperback -1.37667 5.54072 -1.11453
thorax -5.49601 2.7063 -1.99542
lowerneck -11.6119 -0.370965 -5.87956
upperneck 0.367882 -0.125869 9.5402
head 2.00637 0.197798 3.84391
rclavicle -1.51076e-014 7.15625e-015
rhumerus 101.242 -26.7974 -67.4546
rradius 15.7981
rwrist -2.1354
rhand -31.506 -10.1093
rfingers 7.12502
rthumb -4.7717 -40.0356
lclavicle -1.51076e-014 7.15625e-015
lhumerus 103.819 29.9841 55.6199
lradius 23.8882
lwrist 26.1729
lhand -10.4212 25.4441
lfingers 7.12502
lthumb 15.578 54.8368
rfemur 4.81066 19.6502 13.9251
rtibia 26.1833
rfoot -22.3119 -18.6389
rtoes -13.338
lfemur -21.8207 -8.86019 -16.9852
ltibia 33.736
lfoot -4.54897 -2.15848
ltoes -21.9844
1723
root -10.7553 18.552 2.17931 -5.11208 -65.5703 8.25483
lowerback 7.95923 4.17092 0.190177
upperback -1.14122 5.52242 -1.03917
thorax -5.52168 2.70089 -1.87809
lowerneck -11.4337 -0.285442 -5.8929
upperneck 1.1221 -0.0693636 9.76882
head 2.19966 0.241876 3.922
rclavicle -9.95911e-014 1.98785e-015
rhumerus 99.9528 -26.7846 -66.0634
rradius 15.9162
rwrist -2.86473
rhand -31.9702 -10.3267
rfingers 7.12502
rthumb -5.21999 -40.2424
lclavicle -9.95911e-014 1.98785e-015
lhumerus 103.388 30.3152 55.0942
lradius 24.3547
lwrist 25.9915
lhand -10.3248 25.4966
lfingers 7.12502
lthumb 15.6709 54.882
rfemur 5.98577 20.0163 14.193
rtibia 26.0352
rfoot -23.6606 -18.6412
rtoes -12.8708
lfemur -21.4473 -8.65259 -17.2971
ltibia 34.5961
lfoot -6.65532 -1.82419
ltoes -16.8555
1724
root -10.7622 18.4398 2.22903 -6.15899 -65.7789 8.84572
lowerback 8.35858 4.18151 -0.417233
upperback -0.990792 5.47127 -1.01736
thorax -5.65029 2.69165 -1.54046
lowerneck -11.2967 -0.199227 -5.92624
upperneck 1.91901 -0.00297924 9.81675
head 2.40994 0.286833 3.94951
rclavicle -3.78685e-014 3.18055e-015
rhumerus 98.5754 -26.6325 -64.7654
rradius 16.2044
rwrist -3.30093
rhand -32.4683 -10.348
rfingers 7.12502
rthumb -5.70091 -40.2513
lclavicle -3.78685e-014 3.18055e-015
lhumerus 102.069 31.1521 53.4112
lradius 25.2791
lwrist 26.8453
lhand -10.6651 25.651
lfingers 7.12502
lthumb 15.3431 55.0618
rfemur 6.84719 20.5454 14.1723
rtibia 26.171
rfoot -25.0969 -18.8708
rtoes -12.1048
lfemur -21.1762 -7.92566 -17.9505
ltibia 35.3341
lfoot -8.32313 -1.59536
ltoes -14.5802
1725
root -10.7632 18.33 2.26975 -8.01734 -65.7235 10.53
lowerback 8.62846 4.14888 -1.3484
upperback -0.851504 5.30989 -1.24188
thorax -5.72351 2.63418 -1.25376
lowerneck -11.1671 -0.2039 -6.00532
upperneck 2.52044 -0.047124 9.95336
head 2.57271 0.275971 4.00573
rclavicle -7.62215e-014 -8.34896e-015
rhumerus 97.7318 -26.3766 -64.3254
rradius 16.2873
rwrist -2.97111
rhand -32.5135 -9.97826
rfingers 7.12502
rthumb -5.7445 -39.8804
lclavicle -7.62215e-014 -8.34896e-015
lhumerus 100.786 31.8178 51.8025
lradius 26.3035
lwrist 27.6085
lhand -10.9972 25.3858
lfingers 7.12502
lthumb 15.0232 54.8208
rfemur 7.29502 20.8254 13.572
rtibia 26.6093
rfoot -26.2841 -19.3238
rtoes -11.6633
lfemur -21.0227 -6.93705 -19.1576
ltibia 36.0259
lfoot -9.8096 -1.97696
ltoes -15.8294
1726
root -10.7594 18.2323 2.30786 -10.2859 -65.4131 12.8811
lowerback 8.75058 4.05603 -2.48812
upperback -0.725748 5.03723 -1.58503
thorax -5.73118 2.52559 -0.947258
lowerneck -11.035 -0.2541 -6.22156
upperneck 2.88133 -0.12445 10.1613
head 2.66648 0.24553 4.10366
rclavicle -7.2954e-014 4.96962e-015
rhumerus 96.5761 -26.3056 -63.2558
rradius 16.5557
rwrist -3.17946
rhand -32.336 -9.45024
rfingers 7.12502
rthumb -5.57315 -39.3569
lclavicle -7.2954e-014 4.96962e-015
lhumerus 99.9932 31.9819 51.1866
lradius 27.2125
lwrist 27.9
lhand -11.0982 24.9288
lfingers 7.12502
lthumb 14.9259 54.3711
rfemur 7.34436 20.8253 12.4955
rtibia 27.2821
rfoot -27.5771 -19.5236
rtoes -10.5563
lfemur -21.1767 -6.51669 -20.629
ltibia 36.7841
lfoot -10.9733 -1.84818
ltoes -16.479
